<svg xmlns="http://www.w3.org/2000/svg" viewBox="0 0 1200 900" role="img" aria-label="Curated visual portfolio system diagram">
  <defs>
    <linearGradient id="bg" x1="0" y1="0" x2="1" y2="1"><stop stop-color="#f8f4ee"/><stop offset="1" stop-color="#dfece8"/></linearGradient>
    <linearGradient id="ink" x1="0" y1="0" x2="1" y2="1"><stop stop-color="#21313c"/><stop offset="1" stop-color="#477385"/></linearGradient>
    <filter id="s" x="-20%" y="-20%" width="140%" height="140%"><feDropShadow dx="0" dy="28" stdDeviation="30" flood-color="#12242e" flood-opacity=".16"/></filter>
  </defs>
  <rect width="1200" height="900" rx="54" fill="url(#bg)"/>
  <circle cx="986" cy="132" r="210" fill="#fff" opacity=".62"/>
  <circle cx="130" cy="770" r="160" fill="#cbded8" opacity=".55"/>
  <g filter="url(#s)">
    <rect x="92" y="126" width="520" height="620" rx="42" fill="white" opacity=".9"/>
    <text x="138" y="205" font-family="Arial, sans-serif" font-size="18" font-weight="700" letter-spacing="8" fill="#b09163">SELECTED WORK</text>
    <text x="138" y="280" font-family="Georgia, serif" font-size="74" font-weight="700" fill="#21313c">research</text>
    <text x="138" y="356" font-family="Georgia, serif" font-size="74" font-weight="700" fill="#21313c">to story</text>
    <line x1="138" y1="410" x2="498" y2="410" stroke="#21313c" stroke-width="6" opacity=".72"/>
    <text x="138" y="470" font-family="Arial, sans-serif" font-size="30" fill="#335f73">healthcare × data × design</text>
    <rect x="138" y="542" width="120" height="50" rx="25" fill="#eff5f2"/><text x="172" y="575" font-family="Arial" font-size="18" fill="#21313c">ML</text>
    <rect x="278" y="542" width="150" height="50" rx="25" fill="#f0e8dd"/><text x="314" y="575" font-family="Arial" font-size="18" fill="#21313c">Strategy</text>
    <rect x="448" y="542" width="112" height="50" rx="25" fill="#e8f0ed"/><text x="480" y="575" font-family="Arial" font-size="18" fill="#21313c">Media</text>
  </g>
  <g stroke="#91a5a4" stroke-width="4" fill="none" opacity=".78">
    <path d="M720 610 C810 450 936 360 1092 304"/>
    <path d="M702 500 C815 430 948 418 1110 332"/>
    <path d="M740 704 C812 548 921 468 1138 420"/>
  </g>
  <g fill="#9fb1ad"><circle cx="806" cy="548" r="18"/><circle cx="912" cy="462" r="16"/><circle cx="1038" cy="371" r="20"/></g>
  <g font-family="Arial, sans-serif" font-weight="700" font-size="24" fill="#21313c">
    <text x="710" y="168">structured projects</text>
    <text x="805" y="224">public-facing media</text>
    <text x="760" y="280">portfolio-ready evidence</text>
  </g>
</svg>